<?xml version="1.0" encoding="UTF-8"?>
<svg width="159px" height="131px" viewBox="0 0 159 131" version="1.1" xmlns="http://www.w3.org/2000/svg" xmlns:xlink="http://www.w3.org/1999/xlink">
    <title>编组 4</title>
    <g id="页面-1" stroke="none" stroke-width="1" fill="none" fill-rule="evenodd">
        <g id="3泽瑞后台系统-系统管理-部门管理-缺省页" transform="translate(-744.000000, -226.000000)">
            <g id="编组-4" transform="translate(744.000000, 226.000000)">
                <g id="Background-Shape-2" opacity="0.6" transform="translate(0.000000, 74.418011)" fill="#EBF4FE">
                    <path d="M158.930638,34.9766378 C161.248335,50.6097076 105.040239,60.8066241 56.6606281,53.6904419 C8.28101694,46.5742598 -13.9132548,18.7847658 9.17268909,3.97743093 C32.2586329,-10.8299039 156.612941,19.3435679 158.930638,34.9766378 Z" id="Background-Shape"></path>
                </g>
                <g id="编组-3" transform="translate(40.000000, 0.000000)">
                    <path d="M14,14.4180114 L16.9492188,14.4180114 C19.7386882,14.4180114 22,16.6793232 22,19.4687926 L22,19.4687926 L22,19.4687926 L6,24.1392028 L6,22.4180114 C6,17.9997334 9.581722,14.4180114 14,14.4180114 Z" id="矩形" fill="#E8E6E6"></path>
                    <path d="M20,101.421918 L20,112.418011 C20,117.940859 15.5228475,122.418011 10,122.418011 C4.4771525,122.418011 6.76353751e-16,117.940859 0,112.418011 L0,108.202679 L0,108.202679 L20,101.421918 Z" id="矩形" fill="#E8E6E6"></path>
                    <path d="M10.1513672,122.590863 C47.7203776,112.887087 67.4583333,107.265668 69.3652344,105.726605 C72.2255859,103.418011 74.9892578,101.723675 76.3388672,93.7168395 C77.6884766,85.7100035 79.1240234,14.5391051 77.7314453,9.65629261 C76.3388672,4.77348011 72.6095025,0 66.6972656,0 C60.7850288,0 7.33691406,15.9082457 10.1513672,15.9082457 C12.9658203,15.9082457 18.3476562,20.9072692 18.3476562,25.6582457 C18.3476562,30.4092223 16.5176425,104.193172 15.9140625,111.003949 C15.5116758,115.544467 13.5907774,119.406771 10.1513672,122.590863 Z" id="路径-8" fill="#F2F2F2"></path>
                    <g id="编组-2" transform="translate(54.000000, 56.418011) rotate(-30.000000) translate(-54.000000, -56.418011) translate(45.000000, 42.418011)">
                        <rect id="矩形" fill="#4091FD" x="8" y="15" width="3" height="13" rx="1.5"></rect>
                        <circle id="椭圆形" stroke="#4091FD" fill="#FFFFFF" cx="9" cy="9" r="8.5"></circle>
                    </g>
                </g>
                <g id="Humaaan" transform="translate(122.075241, 78.532046) scale(-1, 1) translate(-122.075241, -78.532046) translate(98.167838, 44.412807)">
                    <g id="Head/Front" transform="translate(25.795979, 7.109061) rotate(7.000000) translate(-25.795979, -7.109061) translate(21.512523, 0.472554)">
                        <g id="Head" transform="translate(1.388222, 0.922930)">
                            <path d="M6.58244911,1.54527165 C7.58246761,3.37259701 7.38276074,5.77511425 5.53906226,6.79525828 C5.12627482,7.02365932 4.61682107,7.11806862 4.07758649,7.08640305 C4.25275575,8.61707204 4.27392497,10.3721245 4.14171315,12.3500831 L0,12.3500831 L1.10683305,5.55517905 C0.482529521,4.80371051 0.0930699447,3.78969205 0.182369352,2.54199457 C0.44149458,-1.07852101 5.58243062,-0.282053711 6.58244911,1.54527165 Z" fill="#FFCBA5"></path>
                            <ellipse id="椭圆形" fill="#FEBD91" cx="2.40182088" cy="4.11732563" rx="1" ry="1"></ellipse>
                        </g>
                        <path d="M5.60999998,0.362144117 C5.06413417,0.274387651 3.59436643,0.214052647 3.323315,0.214091598 C3.15010034,0.214091598 2.96238842,0.252886733 2.85979845,0.0969661241 C2.77578557,-0.0307150541 2.45102295,-0.0852074178 2.57872568,0.275010866 C0.429445918,0.656885873 -0.414681426,3.26270369 0.191233182,5.17562326 C0.518253578,6.2080958 2.4840181,7.41504528 3.24833322,6.87225888 C3.73254883,6.52838807 3.43858018,6.07694799 3.24833322,5.77893435 C2.88400017,5.2082252 2.75934741,4.47512957 3.4335101,4.07779104 C4.01502493,3.73510068 4.62644771,4.54889935 4.63801384,4.54800347 C4.79784031,4.53565603 6.17887985,3.76997003 7.13039096,2.65263997 C8.0690602,2.70718954 8.21146991,2.10042132 7.98733408,1.60419895 C7.76319825,1.10797658 6.36421453,0.483476292 5.60999998,0.362144117 Z" id="hair" fill="#F6921E"></path>
                    </g>
                    <g id="Bottom/Skinny-Jeans-1" transform="translate(1.430894, 22.540940)">
                        <path d="M31.2554563,3.19625167 C28.0207901,5.84138002 29.4793509,29.3126448 29.2645335,29.6059611 C29.1690591,29.7363239 24.0138013,30.8048675 13.7987601,32.8115918 L14.2574393,34.6314478 C26.2237748,34.1454984 32.5516552,33.4584485 33.2410803,32.570298 C34.2281397,31.2987208 35.3961092,24.1464116 36.7449888,11.1133704 L31.2554563,3.19625167 Z" id="Leg" fill="#FFCBA5" transform="translate(25.271874, 18.913850) rotate(-55.000000) translate(-25.271874, -18.913850) "></path>
                        <path d="M16.1335243,30.9289698 C15.0874607,32.0289459 15.3174263,32.9689143 16.8234212,33.7488748 C25.7571701,34.86428 28.9739279,37.1009824 33.6806694,31.6785702 C36.8184971,28.0636286 37.9898275,20.9308193 37.1946607,10.2801421 L31.3229653,1.89449205 C23.6186248,7.71553504 31.5310131,25.605998 28.2292097,27.4923604 C24.9274063,29.3787229 17.7026199,29.2790057 16.1335243,30.9289698 Z" id="Pant" fill="#1A0146" transform="translate(26.463088, 18.530145) rotate(-55.000000) translate(-26.463088, -18.530145) "></path>
                        <g id="Right-Show" transform="translate(33.582663, 38.333768) rotate(20.000000) translate(-33.582663, -38.333768) translate(28.572172, 36.402388)">
                            <path d="M0,2.21903254 C0,2.21903254 0,2.21903254 0,2.21903254 C0,2.52436225 0.0518877023,2.96991425 0.155663107,3.55568852 C0.516983855,3.55568852 3.76423426,3.55568852 9.89741432,3.55568852 C10.1505679,2.73525695 10.004433,2.29233235 9.45900954,2.22691471 C8.9135861,2.16149707 8.46049359,2.10243018 8.099732,2.04971404 L4.25763115,0.370623478 C3.79574147,0.168766572 3.25766856,0.37956478 3.05581165,0.841454455 C3.05411384,0.845339378 3.05244313,0.849236085 3.05079963,0.853144291 L3.05079963,0.853144291 L3.05079963,0.853144291 C2.54588018,1.08408746 2.13558071,1.19955905 1.81990121,1.19955905 C1.70334294,1.19955905 1.56660268,1.17858758 1.40968045,1.13664464 L1.40967787,1.13665428 C0.811896869,0.976876459 0.197774102,1.3319482 0.0379962829,1.9297292 C0.0127737314,2.02409501 -5.53401125e-17,2.12135408 0,2.21903254 Z" id="shoe" fill="#E4E4E4"></path>
                            <path d="M0.263018608,3.02557364 L9.76301861,3.02557364 C9.9010898,3.02557364 10.0130186,3.13750245 10.0130186,3.27557364 C10.0130186,3.41364483 9.9010898,3.52557364 9.76301861,3.52557364 L2.40078916,3.52557364 L2.40078916,3.52557364 L0.263018608,3.52557364 C0.12494742,3.52557364 0.0130186079,3.41364483 0.0130186079,3.27557364 C0.0130186079,3.13750245 0.12494742,3.02557364 0.263018608,3.02557364 Z" id="矩形" fill="#1D084B" transform="translate(5.013019, 3.275574) rotate(1.000000) translate(-5.013019, -3.275574) "></path>
                        </g>
                        <polygon id="Leg" fill="#FFCBA5" points="18.1356562 4.9971426 9.1980659 26.0310566 0.413805697 43.813458 2.48629699 43.813458 25.1608374 4.9971426"></polygon>
                        <g id="Left-Shot" transform="translate(0.000000, 41.908576)" fill="#E4E4E4">
                            <path d="M0,2.21903254 C0,2.21903254 0,2.21903254 0,2.21903254 C0,2.52436225 0.0518877023,2.96991425 0.155663107,3.55568852 C0.516983855,3.55568852 3.76423426,3.55568852 9.89741432,3.55568852 C10.1505679,2.73525695 10.004433,2.29233235 9.45900954,2.22691471 C8.9135861,2.16149707 8.46049359,2.10243018 8.099732,2.04971404 L4.25763115,0.370623478 C3.79574147,0.168766572 3.25766856,0.37956478 3.05581165,0.841454455 C3.05411384,0.845339378 3.05244313,0.849236085 3.05079963,0.853144291 L3.05079963,0.853144291 L3.05079963,0.853144291 C2.54588018,1.08408746 2.13558071,1.19955905 1.81990121,1.19955905 C1.70334294,1.19955905 1.56660268,1.17858758 1.40968045,1.13664464 L1.40967787,1.13665428 C0.811896869,0.976876459 0.197774102,1.3319482 0.0379962829,1.9297292 C0.0127737314,2.02409501 2.10082443e-16,2.12135408 2.22044605e-16,2.21903254 Z" id="shoe"></path>
                        </g>
                        <rect id="矩形" fill="#1D084B" x="0" y="45.1975372" width="10" height="1" rx="0.25"></rect>
                        <path d="M1.56188158,40.2392887 C0.776969472,41.8967594 3.53990893,42.2770084 5.32079271,40.640778 C7.1016765,39.0045475 24.2742766,14.7925293 25.9080803,4.9971426 L15.6560929,4.9971426 C10.1999906,12.0782153 2.34679369,38.581818 1.56188158,40.2392887 Z" id="Pant" fill="#300D6D"></path>
                    </g>
                    <g id="Body/Long-Sleeve-1" transform="translate(23.400624, 23.971909) rotate(7.000000) translate(-23.400624, -23.971909) translate(1.560843, 9.828616)">
                        <path d="M8.44779913,13.9063527 L11.9840831,14.5942092 C8.42774625,21.0915734 6.5205467,24.5351802 6.26248442,24.9250296 C5.68184428,25.8021907 6.22359328,27.4097709 6.4237131,28.2563337 C5.16827357,28.5428287 5.66338036,26.6903814 4.0746459,27.0771555 C2.62452276,27.430185 1.14633206,28.553503 0.376208228,27.8264499 C-0.393915599,27.0993968 0.244205214,26.3098017 0.321678028,26.2536865 C1.6035831,25.3251759 3.82008359,24.5301891 4.15837516,24.0940034 C4.61969614,23.4991862 6.04950413,20.1033026 8.44779913,13.9063527 Z M43.1836014,7.74725272 C43.6110313,7.96167685 43.6848595,8.45746192 43.2457177,8.8596401 C42.806576,9.26181828 42.3202146,10.3630655 42.5423829,10.6420898 C42.7645513,10.9211141 43.4081246,10.6131473 43.6623807,11.0668955 C43.8318848,11.3693943 42.7470521,11.731246 40.4078824,12.1524508 C37.3623477,14.2266949 35.5566147,15.3307134 34.9906835,15.4645063 C34.1417868,15.6651956 31.9155513,15.4529942 33.9986496,13.66767 C35.3873819,12.4774539 37.3815408,11.4124708 39.9811264,10.4727207 L40.1051473,10.3506779 L40.1051473,10.3506779 L40.3653763,10.0903626 C40.5880713,9.86588183 40.8238051,9.62496469 41.0609149,9.38592621 L41.3453606,9.10115396 C42.1489317,8.30349647 42.9144788,7.61224493 43.1836014,7.74725272 Z" id="Skin" fill="#FFCBA5"></path>
                        <path d="M20.8551971,1.64154719 L22.3198954,1.26152298 C25.8271735,4.05740443 27.795701,11.3394136 30.0391893,12.1298257 C32.1603167,12.8771284 34.8648616,11.0531206 35.9230834,11.309816 C36.9813052,11.5665114 36.1692863,12.0221451 36.1645139,12.833964 C36.1597415,13.6457828 36.4085799,13.6474144 37.6408753,14.0107402 C38.8731706,14.374066 30.3174383,19.3985275 27.4804632,18.03675 C22.9447296,15.859551 21.1509893,6.82279898 20.8551971,1.64154719 Z" id="Coat-Back" fill="#DB2721" transform="translate(29.308310, 9.765869) rotate(5.000000) translate(-29.308310, -9.765869) "></path>
                        <path d="M15.0903679,19.3200878 C21.0737207,19.3200878 25.4749497,19.3200878 28.2940547,19.3200878 C28.8973958,19.3200878 28.7837077,18.4660097 28.6964911,18.0350372 C27.6899059,13.0610938 24.9067815,2.02757466 23.9488283,0.926844496 C22.990875,-0.173885671 22.5955784,1.13829521 21.8993513,0.504025013 C21.4352,0.0811782145 20.7860877,-0.0756112301 19.9520144,0.0336566791 C16.801842,5.00048905 15.7124578,11.1156654 15.0903679,19.3200878 Z" id="Shirt" fill="#DDE3E9"></path>
                        <path d="M21.2143047,0.0336566791 C24.6333794,11.4595048 25.5759578,19.0725698 24.0420398,22.8728514 C22.7629705,26.0417457 19.9157555,25.0870512 16.8930117,23.6578284 C14.6091018,22.5779434 11.8367548,25.2620268 12.1566544,22.8728514 C12.590933,19.6294362 13.4493566,16.0907674 14.5061234,12.6964406 C12.9330349,15.355082 11.9461244,16.6964685 11.4768185,17.1838892 L11.4051985,17.2555589 C11.3492827,17.3091599 11.3027633,17.347604 11.2654706,17.3720358 C10.6762446,17.758058 9.81288791,17.7792906 9.08252706,16.5809977 C8.59561982,15.7821358 8.10114573,15.3281545 7.59910477,15.2190537 C8.64370966,13.6884597 8.27874698,13.1832969 10.3484886,9.53120908 C13.0153257,4.82553812 14.8966124,2.93929272 19.7063165,0.0336566791 Z" id="Coat-Front" fill="#FF4133"></path>
                    </g>
                </g>
                <g id="Big-Leaf-Plant" transform="translate(11.000000, 61.418011)">
                    <g id="Big-Ass-Leaf" transform="translate(4.000000, 0.000000)">
                        <path d="M4.50504858,0.0316930981 C5.03704141,-0.032386216 5.60483933,-0.0097664799 6.09957708,0.197264218 C7.1515863,0.637550822 7.45062159,1.86287136 7.4361953,2.8588132 C7.42064264,3.9307681 7.18975233,5.10161384 8.01637871,5.96531384 C8.39636241,6.36239322 8.8690326,6.66627461 9.24215113,7.07064512 C9.64083438,7.50276952 9.95365973,7.99720575 10.1852835,8.52815178 C10.6105723,9.50339898 10.8193114,10.650277 10.4304081,11.6733177 C10.0879856,12.5740451 9.22648878,13.3870287 9.41263735,14.4112428 C9.60680667,15.4796889 10.6994104,16.2965249 11.382511,17.0923496 C12.1555879,17.9929738 12.8673818,19.144054 12.9843134,20.3251281 C13.0964392,21.457017 12.5967042,22.6017599 11.8297714,23.4573753 C10.2974376,25.1670366 7.99410228,26.005169 5.67163332,26 C4.68557624,25.9977239 3.56915942,25.9538168 2.71821872,25.4313899 C2.45522316,25.2699116 2.31647611,25.0887476 2.16013262,24.8369039 C2.01995391,24.6110733 1.83477891,24.46418 1.62044256,24.3043823 C1.14954633,23.9533961 0.809475711,23.4803516 0.592451186,22.9508279 C-0.250301961,20.8941169 0.423273825,18.3497132 1.60293748,16.5233379 C1.88246568,16.0906322 2.11131985,15.6742397 1.97552391,15.15848 C1.83381673,14.6200894 1.48553126,14.1344904 1.17747671,13.6716979 C0.873069855,13.2143146 0.525548891,12.7779772 0.287626405,12.2834455 C0.0384415376,11.7653884 -0.0317269246,11.2228956 0.0123012494,10.6559252 C0.0950491858,9.59090833 0.561364591,8.60810207 1.22156571,7.75159334 C1.85746156,6.92658809 2.60410943,6.13718581 2.60578245,5.05618038 C2.60761964,3.91046186 1.83072156,2.89127458 2.16169162,1.7264328 C2.29873488,1.24409294 2.57399151,0.749209329 3.01758783,0.460039428 C3.44300502,0.182704227 4.00471567,0.0919589302 4.50504858,0.0316930981 Z" id="leaf" fill="#DDE3E9"></path>
                        <path d="M4.15742966,1.86329017 C4.16740587,1.70941582 4.3525391,1.6171277 4.49828001,1.65728048 C4.69011519,1.71015864 4.68642585,1.88688071 4.68136116,2.04432623 C4.66583564,2.52827632 4.73688359,2.9985968 4.85487895,3.46816562 C5.10011958,4.44445146 5.55335726,5.34393845 5.91243519,6.28173839 C6.27120016,7.21875327 6.439612,8.18619279 6.22914542,9.1776883 C6.03073821,10.1125303 5.71903443,11.0231423 5.51598381,11.9591643 C5.33701116,12.7841474 5.14657569,13.6541385 5.41912816,14.4770209 C5.68139065,15.269105 6.26121694,15.9141709 6.67874213,16.6299834 C7.54306748,18.1117607 7.92652101,19.7556155 7.97780964,21.4472871 C8.00157861,22.2328345 7.98017406,23.0256053 7.79533266,23.7960562 C7.68894412,24.2396839 7.54597583,24.839227 7.16038584,25.1455088 C6.98258041,25.2867514 6.67847666,25.3355909 6.52882649,25.1264267 C6.38832678,24.9302472 6.51158323,24.6265417 6.55618706,24.4174452 C6.749354,23.5123002 6.78821482,22.587278 6.74196789,21.6681979 C6.69720833,20.7779481 6.59052251,19.8891851 6.30633374,19.0389595 C6.04256844,18.249938 5.64186015,17.5412433 5.17025067,16.8510171 C4.68968392,16.1476284 4.19009258,15.442739 3.99152411,14.6092958 C3.78977271,13.7628133 3.95367548,12.9014902 4.17283598,12.0711737 C4.40460355,11.192933 4.7081828,10.3398865 5.02202964,9.48544126 C5.32788416,8.65284813 5.4362946,7.86506696 5.26745009,6.99366151 C4.93390588,5.27205475 4.04110612,3.65613403 4.15742966,1.86329017 Z" id="middle-thing" fill="#C5CFD6"></path>
                    </g>
                    <g id="Big-Ass-Leaf" transform="translate(6.000000, 2.000000)">
                        <path d="M16.6053299,0.293342838 C17.2529466,0.492887413 17.8961517,0.81484395 18.3578024,1.31968106 C19.3394254,2.39323379 19.0382366,4.01578653 18.4963425,5.2008825 C17.9130604,6.47641515 17.0291642,7.75853456 17.5274332,9.222056 C17.7564493,9.89487197 18.1415601,10.5042225 18.3588098,11.1822039 C18.5909193,11.9066956 18.691102,12.6612144 18.6783382,13.4172818 C18.6547086,14.8059513 18.2907043,16.2876804 17.3024409,17.3107512 C16.4323145,18.2114968 15.0095469,18.7376066 14.6841688,20.0607204 C14.3447178,21.4409649 15.1745914,22.9864974 15.5430548,24.2942054 C15.9600641,25.7741321 16.1742764,27.5221411 15.6863085,28.9971404 C15.2187353,30.4107473 14.0384081,31.5219926 12.7022663,32.1482611 C10.0325781,33.3997139 6.93293047,33.2071581 4.25596678,31.9948279 C3.11942586,31.4800488 1.85444211,30.8476913 1.1481351,29.7801994 C0.929848406,29.4502581 0.865303732,29.1612691 0.817731697,28.7785067 C0.77509179,28.4352884 0.638903755,28.1632258 0.475874572,27.8605666 C0.117653097,27.1957319 -0.0252474409,26.4526795 0.0036111427,25.7058969 C0.115915675,22.8054327 2.23498896,20.1084468 4.55931438,18.5340852 C5.11004278,18.1611084 5.59369931,17.7813495 5.70902174,17.0932325 C5.829459,16.3749463 5.68370116,15.6125944 5.57233449,14.8984449 C5.46232384,14.192667 5.29146809,13.4897002 5.27775982,12.773966 C5.2634639,12.0242124 5.46860718,11.3381657 5.81842156,10.6821134 C6.47557568,9.44978473 7.53193921,8.51509439 8.74540331,7.83232803 C9.914209,7.17466313 11.1920255,6.61714701 11.7640663,5.32356879 C12.3704255,3.95258533 12.011536,2.32870111 13.0077394,1.10574486 C13.4202429,0.599338029 13.9988347,0.149688111 14.6631684,0.0337922247 C15.3002852,-0.0773730822 15.9962541,0.105673539 16.6053299,0.293342838 Z" id="leaf" fill="#DDE3E9"></path>
                        <path d="M15.2824406,2.56044428 C15.3743253,2.38115694 15.635507,2.36736252 15.7821677,2.49176388 C15.9751999,2.65554158 15.8786076,2.86551453 15.7905065,3.05165381 C15.519753,3.62382372 15.3557057,4.22494798 15.2460539,4.84973495 C15.0179781,6.1486922 15.0692896,7.46439075 14.9922701,8.77676284 C14.9153008,10.0880298 14.6034729,11.336181 13.8432575,12.414939 C13.1265188,13.4320748 12.2921189,14.3608775 11.5694224,15.3769987 C10.9324472,16.272574 10.258767,17.2161195 10.1422706,18.3454245 C10.0300318,19.432416 10.3599071,20.5092784 10.466121,21.5860514 C10.6860153,23.8150515 10.2680758,25.9867914 9.44306591,28.0420707 C9.05990835,28.9964387 8.6210138,29.9358323 8.00578442,30.7629486 C7.65158392,31.2392271 7.17383066,31.8833208 6.5702419,32.0488262 C6.29190734,32.1251549 5.91658066,32.024603 5.85374251,31.6954985 C5.79464456,31.3867515 6.09512966,31.0870761 6.25570288,30.8596911 C6.95089518,29.8754224 7.47897917,28.7865828 7.90606011,27.6603379 C8.3197863,26.5694409 8.66150292,25.4479254 8.7789029,24.2797455 C8.88781263,23.1956399 8.79722348,22.1362006 8.61542701,21.0618093 C8.43020542,19.9669484 8.22388444,18.8603339 8.431002,17.7570759 C8.64127218,16.6365174 9.27990277,15.6894828 9.96589234,14.8085396 C10.691427,13.8767281 11.4863998,13.0126998 12.2939141,12.1523667 C13.0808159,11.3140541 13.6171843,10.426167 13.8783305,9.29294167 C14.39431,7.054085 14.2117606,4.6493382 15.2824406,2.56044428 Z" id="middle-thing" fill="#C5CFD6"></path>
                    </g>
                    <g id="Big-Ass-Leaf" transform="translate(0.000000, 10.000000)">
                        <path d="M2.56500752,0 C3.7012561,0 4.70020856,0.590430462 5.38854735,1.42827093 C6.19431326,2.40908221 6.3570531,3.60684778 6.68424809,4.77580017 C6.84705941,5.35753877 7.12708343,5.9350341 7.61780445,6.33027416 C8.06414187,6.68972017 8.63076526,6.76165044 9.16501222,6.93726706 C10.2327199,7.28822653 11.0948766,8.13366382 11.4353652,9.16525747 C11.8507556,10.4235923 11.4107792,11.6926037 11.4865386,12.9678432 C11.55608,14.1389856 12.7339963,14.8696493 13.6817039,15.4310613 C14.6161894,15.9846711 15.4580483,16.5028976 15.7395017,17.5813725 C16.0379653,18.7252075 16.1380964,20.0019526 15.7247072,21.1318943 C15.0364399,23.0133054 13.022168,23.8417696 11.0758653,23.9702311 C9.30952691,24.0867842 7.08856047,23.9037761 5.76205566,22.6468785 C4.9682969,21.8947247 4.68083988,20.8428044 4.71650399,19.7962225 C4.73866005,19.1454281 4.87016699,18.5006564 5.04019689,17.8717627 C5.16069728,17.4260141 5.32350859,16.9821817 5.36989338,16.5215816 C5.49318114,15.2961664 4.33784976,15.0608018 3.35440653,14.7243516 C2.10473322,14.2967395 1.22985469,13.489081 0.62149214,12.3638616 C0.0549402182,11.3161846 -0.182772875,10.1401145 0.156858099,8.98662949 C0.330318616,8.39763627 0.644934682,7.86325803 1.07161754,7.40874908 C1.25944376,7.20869945 1.52417295,7.04184313 1.69370255,6.83166439 C1.85193971,6.63537894 1.81749061,6.38105651 1.76295811,6.15116711 C1.51080784,5.08925462 0.7251968,4.20993961 0.444243652,3.14994343 C0.190592489,2.19315453 0.340538992,1.00236983 1.23285648,0.385110955 C1.61837194,0.118400916 2.09379813,0.00294291293 2.56500752,0 Z" id="leaf" fill="#C5CFD6"></path>
                        <path d="M4.11328988,2.76687434 C5.31759168,4.02444528 5.64493546,5.73070383 5.74100451,7.3844695 C5.79481736,8.31182113 5.73880662,9.28995467 6.01673333,10.1894515 C6.25453082,10.9593245 6.81201493,11.5478335 7.38665676,12.1040391 C8.54338488,13.223705 9.83340438,14.3619863 10.1717376,15.9824221 C10.3702567,16.9333853 10.2362563,17.9156252 10.5105671,18.8561171 C10.7599922,19.7109916 11.1991447,20.5508779 11.7333028,21.2727749 C12.1633802,21.8540978 12.7237003,22.2991581 13.193836,22.84106 C13.3372661,23.0064776 13.5427333,23.2499844 13.4835321,23.4834991 C13.4142631,23.7569823 13.058914,23.8435579 12.8067947,23.8005781 C12.2189656,23.7004515 11.7241568,23.1502 11.3398097,22.7501727 C10.777788,22.1652225 10.3002078,21.5360607 9.91203211,20.8303153 C9.48110392,20.0465492 9.13412093,19.2148756 8.98586972,18.3355683 C8.83201744,17.4233417 8.90858908,16.4726523 8.55728121,15.5971776 C7.96611976,14.1240916 6.53224483,13.2547764 5.49554985,12.1066398 C4.20389966,10.675986 4.39653407,8.89540248 4.52883285,7.135556 C4.60150501,6.16844118 4.67375178,5.07628787 4.1752562,4.19328487 C3.98496148,3.85622164 3.56069785,3.54194867 3.47887964,3.15882584 C3.40393868,2.807801 3.81295888,2.45308045 4.11328988,2.76687434 Z" id="middle-thing" fill="#AFB9C5"></path>
                    </g>
                    <path d="M5,33 C5,40.2179894 6.19446711,44 12.5000179,44 C18.8055687,44 20,40.2179894 20,33 L5,33 Z" id="Base" fill="#89C5CC"></path>
                </g>
                <rect id="矩形" fill="#D8D8D8" x="101" y="108.418011" width="16" height="4" rx="1"></rect>
                <rect id="矩形" fill="#1D084B" transform="translate(110.466309, 104.250409) rotate(-47.000000) translate(-110.466309, -104.250409) " x="109.466309" y="104.000409" width="2" height="1" rx="0.25"></rect>
                <rect id="矩形备份" fill="#1D084B" transform="translate(139.797119, 109.792645) rotate(-25.000000) translate(-139.797119, -109.792645) " x="138.797119" y="109.542645" width="2" height="1" rx="0.25"></rect>
            </g>
        </g>
    </g>
</svg>